<svg width="119" height="119" viewBox="0 0 119 119" fill="none" xmlns="http://www.w3.org/2000/svg">
<path d="M59.4461 7.43066C49.1584 7.43066 39.1018 10.4813 30.5479 16.1968C21.994 21.9124 15.327 30.0361 11.3901 39.5406C7.4532 49.0452 6.42312 59.5037 8.43015 69.5937C10.4372 79.6837 15.3912 88.952 22.6656 96.2265C29.9401 103.501 39.2084 108.455 49.2984 110.462C59.3884 112.469 69.8469 111.439 79.3515 107.502C88.8561 103.565 96.9798 96.8981 102.695 88.3442C108.411 79.7904 111.461 69.7337 111.461 59.446C111.461 45.6507 105.981 32.4204 96.2265 22.6656C86.4717 12.9108 73.2414 7.43066 59.4461 7.43066ZM59.4461 104.031C50.6281 104.031 42.0081 101.416 34.6762 96.5168C27.3443 91.6178 21.6298 84.6546 18.2553 76.5078C14.8808 68.3611 13.9978 59.3966 15.7181 50.748C17.4384 42.0995 21.6847 34.1552 27.92 27.92C34.1553 21.6847 42.0995 17.4384 50.7481 15.7181C59.3966 13.9978 68.3611 14.8807 76.5079 18.2552C84.6546 21.6297 91.6178 27.3443 96.5168 34.6762C101.416 42.0081 104.031 50.628 104.031 59.446C104.031 71.2706 99.3334 82.6109 90.9722 90.9721C82.6109 99.3334 71.2706 104.031 59.4461 104.031Z" fill="black"/>
<path d="M55.731 29.7231H63.1617V70.5924H55.731V29.7231Z" fill="black"/>
<path d="M59.4461 81.7383C58.3439 81.7383 57.2664 82.0651 56.3499 82.6775C55.4334 83.2899 54.7191 84.1603 54.2973 85.1786C53.8755 86.197 53.7651 87.3175 53.9801 88.3986C54.1952 89.4797 54.726 90.4727 55.5054 91.2521C56.2848 92.0315 57.2778 92.5623 58.3589 92.7774C59.4399 92.9924 60.5605 92.882 61.5788 92.4602C62.5972 92.0384 63.4676 91.3241 64.08 90.4076C64.6923 89.4911 65.0192 88.4136 65.0192 87.3114C65.0192 85.8333 64.432 84.4158 63.3869 83.3706C62.3417 82.3254 60.9242 81.7383 59.4461 81.7383Z" fill="black"/>
</svg>
